<?xml version="1.0" encoding="UTF-8" standalone="no"?>
<!-- Created with Inkscape (http://www.inkscape.org/) -->

<svg
   xmlns:dc="http://purl.org/dc/elements/1.1/"
   xmlns:cc="http://creativecommons.org/ns#"
   xmlns:rdf="http://www.w3.org/1999/02/22-rdf-syntax-ns#"
   xmlns:svg="http://www.w3.org/2000/svg"
   xmlns="http://www.w3.org/2000/svg"
   xmlns:sodipodi="http://sodipodi.sourceforge.net/DTD/sodipodi-0.dtd"
   xmlns:inkscape="http://www.inkscape.org/namespaces/inkscape"
   width="744.09448819"
   height="1052.3622047"
   id="svg2"
   version="1.1"
   inkscape:version="0.48.3.1 r9886"
   sodipodi:docname="New document 1">
  <defs
     id="defs4">
    <clipPath
       id="clipPath3011"
       clipPathUnits="userSpaceOnUse">
      <path
         id="path3013"
         d="M 0,640 0,0 806,0 806,640 0,640 z" />
    </clipPath>
    <clipPath
       id="clipPath3003"
       clipPathUnits="userSpaceOnUse">
      <path
         id="path3005"
         d="M 0,0 806,0 806,640 0,640 0,0 z" />
    </clipPath>
  </defs>
  <sodipodi:namedview
     id="base"
     pagecolor="#ffffff"
     bordercolor="#666666"
     borderopacity="1.0"
     inkscape:pageopacity="0.0"
     inkscape:pageshadow="2"
     inkscape:zoom="0.54277344"
     inkscape:cx="375"
     inkscape:cy="446.30443"
     inkscape:document-units="px"
     inkscape:current-layer="layer1"
     showgrid="false"
     inkscape:window-width="1091"
     inkscape:window-height="921"
     inkscape:window-x="360"
     inkscape:window-y="130"
     inkscape:window-maximized="0" />
  <metadata
     id="metadata7">
    <rdf:RDF>
      <cc:Work
         rdf:about="">
        <dc:format>image/svg+xml</dc:format>
        <dc:type
           rdf:resource="http://purl.org/dc/dcmitype/StillImage" />
        <dc:title></dc:title>
      </cc:Work>
    </rdf:RDF>
  </metadata>
  <g
     inkscape:label="Layer 1"
     inkscape:groupmode="layer"
     id="layer1">
    <g
       id="g2995"
       transform="matrix(1.25,0,0,-1.25,-128.75,932.36218)" />
    <path
       inkscape:connector-curvature="0"
       d="m 111.67462,872.08196 70.075,0"
       style="fill:none;stroke:#000000;stroke-width:1.25;stroke-linecap:round;stroke-linejoin:round;stroke-miterlimit:10;stroke-opacity:1;stroke-dasharray:none"
       id="path3019" />
    <path
       inkscape:connector-curvature="0"
       d="m 350.80999,424.83308 0,0 c 0,0 0,0 0,-11.725 l 0,-16.925"
       style="fill:none;stroke:#000000;stroke-width:1.25;stroke-linecap:round;stroke-linejoin:round;stroke-miterlimit:10;stroke-opacity:1;stroke-dasharray:none"
       id="path3025" />
    <path
       inkscape:connector-curvature="0"
       d="m 342.00999,338.87058 -11.1125,0 c 0,0 -7.6875,0 -7.6875,-35.1625 l 0,-50.8"
       style="fill:none;stroke:#000000;stroke-width:1.25;stroke-linecap:round;stroke-linejoin:round;stroke-miterlimit:10;stroke-opacity:1;stroke-dasharray:none"
       id="path3027" />
    <path
       inkscape:connector-curvature="0"
       d="m 455.05999,768.68308 0,0 c 0,0 0,0 0,11.725 l 0,16.925"
       style="fill:none;stroke:#000000;stroke-width:1.25;stroke-linecap:round;stroke-linejoin:round;stroke-miterlimit:10;stroke-opacity:1;stroke-dasharray:none"
       id="path3029" />
    <path
       inkscape:connector-curvature="0"
       d="m 347.02249,281.57058 -2.9625,0 c 0,0 -2.05,0 -2.05,23.4375 l 0,33.8625"
       style="fill:none;stroke:#000000;stroke-width:1.25;stroke-linecap:round;stroke-linejoin:round;stroke-miterlimit:10;stroke-opacity:1;stroke-dasharray:none"
       id="path3031" />
    <path
       inkscape:connector-curvature="0"
       d="m 445.28499,596.75808 -0.075,0 c 0,0 -0.05,0 -0.05,-11.725 l 0,-16.925"
       style="fill:none;stroke:#000000;stroke-width:1.25;stroke-linecap:round;stroke-linejoin:round;stroke-miterlimit:10;stroke-opacity:1;stroke-dasharray:none"
       id="path3033" />
    <path
       inkscape:connector-curvature="0"
       d="m 455.05999,797.33308 -115,0 c 0,0 -79.625,0 -79.625,17.5875 l 0,25.4"
       style="fill:none;stroke:#000000;stroke-width:1.25;stroke-linecap:round;stroke-linejoin:round;stroke-miterlimit:10;stroke-opacity:1;stroke-dasharray:none"
       id="path3035" />
    <path
       inkscape:connector-curvature="0"
       d="m 347.02249,252.90808 0,0 c 0,0 0,0 0,11.725 l 0,16.9375"
       style="fill:none;stroke:#000000;stroke-width:1.25;stroke-linecap:round;stroke-linejoin:round;stroke-miterlimit:10;stroke-opacity:1;stroke-dasharray:none"
       id="path3037" />
    <path
       inkscape:connector-curvature="0"
       d="m 308.29749,682.72058 -35.05,0 c 0,0 -24.2625,0 -24.2625,-23.45 l 0,-33.8625"
       style="fill:none;stroke:#000000;stroke-width:1.25;stroke-linecap:round;stroke-linejoin:round;stroke-miterlimit:10;stroke-opacity:1;stroke-dasharray:none"
       id="path3039" />
    <path
       inkscape:connector-curvature="0"
       d="m 355.09749,195.60808 0,0 c 0,0 0,0 0,-11.725 l 0,-16.9375"
       style="fill:none;stroke:#000000;stroke-width:1.25;stroke-linecap:round;stroke-linejoin:round;stroke-miterlimit:10;stroke-opacity:1;stroke-dasharray:none"
       id="path3041" />
    <path
       inkscape:connector-curvature="0"
       d="m 59.236484,621.83308 15.82351,0"
       style="fill:none;stroke:#000000;stroke-width:0.25507602;stroke-linecap:round;stroke-linejoin:round;stroke-miterlimit:10;stroke-opacity:1;stroke-dasharray:none"
       id="path3043" />
    <path
       inkscape:connector-curvature="0"
       d="m 350.80999,367.52058 0,0 c 0,0 0,0 0,11.725 l 0,16.9375"
       style="fill:none;stroke:#000000;stroke-width:1.25;stroke-linecap:round;stroke-linejoin:round;stroke-miterlimit:10;stroke-opacity:1;stroke-dasharray:none"
       id="path3045" />
    <path
       inkscape:connector-curvature="0"
       d="m 445.15999,568.10808 -115.925,0 c 0,0 -80.25,0 -80.25,23.4375 l 0,33.8625"
       style="fill:none;stroke:#000000;stroke-width:1.25;stroke-linecap:round;stroke-linejoin:round;stroke-miterlimit:10;stroke-opacity:1;stroke-dasharray:none"
       id="path3047" />
    <path
       inkscape:connector-curvature="0"
       d="m 355.09749,166.94558 -18.8375,0 c 0,0 -13.05,0 -13.05,35.175 l 0,50.7875"
       style="fill:none;stroke:#000000;stroke-width:1.25;stroke-linecap:round;stroke-linejoin:round;stroke-miterlimit:10;stroke-opacity:1;stroke-dasharray:none"
       id="path3049" />
    <path
       inkscape:connector-curvature="0"
       d="m 455.05999,654.07058 -86.725,0 c 0,0 -60.0375,0 -60.0375,11.7125 l 0,16.9375"
       style="fill:none;stroke:#000000;stroke-width:1.25;stroke-linecap:round;stroke-linejoin:round;stroke-miterlimit:10;stroke-opacity:1;stroke-dasharray:none"
       id="path3051" />
    <path
       inkscape:connector-curvature="0"
       d="m 355.09749,138.29558 0,0 c 0,0 0,0 0,11.725 l 0,16.925"
       style="fill:none;stroke:#000000;stroke-width:1.25;stroke-linecap:round;stroke-linejoin:round;stroke-miterlimit:10;stroke-opacity:1;stroke-dasharray:none"
       id="path3053" />
    <path
       inkscape:connector-curvature="0"
       d="m 134.30999,403.34558 -35.012496,0 c 0,0 -24.2375,0 -24.2375,89.375 l 0,129.1125"
       style="fill:none;stroke:#000000;stroke-width:1.25;stroke-linecap:round;stroke-linejoin:round;stroke-miterlimit:10;stroke-opacity:1;stroke-dasharray:none"
       id="path3055" />
    <path
       inkscape:connector-curvature="0"
       d="m 350.80999,396.18308 -5.2,0 c 0,0 -3.6,0 -3.6,-23.45 l 0,-33.8625"
       style="fill:none;stroke:#000000;stroke-width:1.25;stroke-linecap:round;stroke-linejoin:round;stroke-miterlimit:10;stroke-opacity:1;stroke-dasharray:none"
       id="path3057" />
    <path
       inkscape:connector-curvature="0"
       d="m 427.33499,711.37058 -70.3375,0 c 0,0 -48.7,0 -48.7,-11.725 l 0,-16.925"
       style="fill:none;stroke:#000000;stroke-width:1.25;stroke-linecap:round;stroke-linejoin:round;stroke-miterlimit:10;stroke-opacity:1;stroke-dasharray:none"
       id="path3059" />
    <path
       inkscape:connector-curvature="0"
       d="m 455.05999,825.98308 0,0 c 0,0 0,0 0,-11.7125 l 0,-16.9375"
       style="fill:none;stroke:#000000;stroke-width:1.25;stroke-linecap:round;stroke-linejoin:round;stroke-miterlimit:10;stroke-opacity:1;stroke-dasharray:none"
       id="path3061" />
    <path
       inkscape:connector-curvature="0"
       d="m 356.09749,883.29558 -56.525,0 c 0,0 -39.1375,0 -39.1375,-17.5875 l 0,-25.3875"
       style="fill:none;stroke:#000000;stroke-width:1.25;stroke-linecap:round;stroke-linejoin:round;stroke-miterlimit:10;stroke-opacity:1;stroke-dasharray:none"
       id="path3063" />
    <path
       inkscape:connector-curvature="0"
       d="m 260.43499,840.32058 -109.5375,0 c 0,0 -75.837496,0 -75.837496,-89.3875 l 0,-129.1"
       style="fill:none;stroke:#000000;stroke-width:1.25;stroke-linecap:round;stroke-linejoin:round;stroke-miterlimit:10;stroke-opacity:1;stroke-dasharray:none"
       id="path3065" />
    <path
       inkscape:connector-curvature="0"
       d="m 347.02249,310.22058 0,0 c 0,0 0,0 0,-11.725 l 0,-16.925"
       style="fill:none;stroke:#000000;stroke-width:1.25;stroke-linecap:round;stroke-linejoin:round;stroke-miterlimit:10;stroke-opacity:1;stroke-dasharray:none"
       id="path3067" />
    <path
       inkscape:connector-curvature="0"
       d="m 248.98499,625.40808 -23.75,0 c 0,0 -16.45,0 -16.45,-29.3 l 0,-42.3375"
       style="fill:none;stroke:#000000;stroke-width:1.25;stroke-linecap:round;stroke-linejoin:round;stroke-miterlimit:10;stroke-opacity:1;stroke-dasharray:none"
       id="path3069" />
    <path
       inkscape:connector-curvature="0"
       d="m 323.20999,252.90808 -111.625,0 c 0,0 -77.275,0 -77.275,61.55 l 0,88.8875"
       style="fill:none;stroke:#000000;stroke-width:1.25;stroke-linecap:round;stroke-linejoin:round;stroke-miterlimit:10;stroke-opacity:1;stroke-dasharray:none"
       id="path3071" />
    <path
       inkscape:connector-curvature="0"
       d="m 445.28499,539.44558 -0.075,0 c 0,0 -0.05,0 -0.05,11.725 l 0,16.9375"
       style="fill:none;stroke:#000000;stroke-width:1.25;stroke-linecap:round;stroke-linejoin:round;stroke-miterlimit:10;stroke-opacity:1;stroke-dasharray:none"
       id="path3073" />
    <path
       inkscape:connector-curvature="0"
       d="m 388.14749,482.14558 -105.9875,0 c 0,0 -73.375,0 -73.375,29.3 l 0,42.325"
       style="fill:none;stroke:#000000;stroke-width:1.25;stroke-linecap:round;stroke-linejoin:round;stroke-miterlimit:10;stroke-opacity:1;stroke-dasharray:none"
       id="path3075" />
    <path
       inkscape:connector-curvature="0"
       d="m 208.78499,553.77058 -44,0 c 0,0 -30.475,0 -30.475,-61.5375 l 0,-88.8875"
       style="fill:none;stroke:#000000;stroke-width:1.25;stroke-linecap:round;stroke-linejoin:round;stroke-miterlimit:10;stroke-opacity:1;stroke-dasharray:none"
       id="path3077" />
    <text
       id="text3079"
       x="461.31"
       y="657.82062"
       style="font-size:15px;fill:#ff0000">
      <tspan
         style="font-size:10px;font-variant:normal;font-weight:normal;writing-mode:lr-tb;fill:#ff0000;fill-opacity:1;fill-rule:nonzero;stroke:none;font-family:Helvetica;-inkscape-font-specification:Helvetica"
         x="461.31 467.98053 472.98108 478.54163 484.10217 487.43268 494.10321 501.88379 504.66431 511.33484 516.89539 522.45593 528.01648 533.57697 539.13751 544.69806 550.25861 555.81915 558.59967 564.16022 567.49072 570.2713 573.60181 579.16235 584.1629 587.49341 593.05396 595.83453 601.39502 606.95557 612.51611 615.29669 620.85718 623.63776 629.1983 634.75879 640.31934 643.6499 649.21045 651.99097 657.55151 663.11206 668.67255 672.00311 677.56366 680.34418 685.90472 691.46527 697.02582"
         y="657.82062"
         sodipodi:role="line"
         id="tspan3081">Vs38-AQIB01018219.1-trgv-1.288[0.478-0.420-0.418]</tspan>
    </text>
    <text
       id="text3083"
       x="357.06"
       y="428.5831"
       style="font-size:15px">
      <tspan
         style="font-size:10px;font-variant:normal;font-weight:normal;writing-mode:lr-tb;fill:#000000;fill-opacity:1;fill-rule:nonzero;stroke:none;font-family:Helvetica;-inkscape-font-specification:Helvetica"
         x="357.06 363.73053 368.73108 374.29163 379.85217 383.18268 389.85321 397.63379 400.41431 407.08484 412.64539 418.20593 423.76648 429.32697 434.88751 440.44806 446.00861 451.56915 454.34967 459.91022 463.24072 466.0213 469.35181 474.91235 479.9129 483.24341 488.80396 491.58453 497.14502 502.70557 508.26611 511.04669 516.60718 519.38776 524.9483 530.50879 536.06934 539.3999 544.96045 547.74097 553.30151 558.86206 564.42255 567.75311 573.31366 576.09418 581.65472 587.21527 592.77582"
         y="428.5831"
         sodipodi:role="line"
         id="tspan3085">Vs36-AQIB01018217.1-trgv-2.999[0.999-1.000-1.000]</tspan>
    </text>
    <text
       id="text3087"
       x="361.34747"
       y="142.04559"
       style="font-size:15px;fill:#ff0000">
      <tspan
         style="font-size:10px;font-variant:normal;font-weight:normal;writing-mode:lr-tb;fill:#ff0000;fill-opacity:1;fill-rule:nonzero;stroke:none;font-family:Helvetica;-inkscape-font-specification:Helvetica"
         x="361.34747 368.01825 373.57892 380.79968 386.9104 390.24115 396.91187 404.69257 407.47327 414.14404 419.70477 425.2655 430.82617 436.3869 441.94763 447.50836 453.06909 458.62982 461.41052 466.97125 470.302 473.0827 476.41345 481.97418 486.97491 490.3056 495.86633 498.64709 504.20782 509.76849 515.32922 518.65997 524.2207 527.0014 532.56213 538.12286 543.68359 549.24432 554.80505 560.36578 565.92651 571.48724 577.04797 582.6087"
         y="142.04559"
         sodipodi:role="line"
         id="tspan3089">V1RF-AQIB01018215.1-trgv-0.996-2.99598000014</tspan>
    </text>
    <text
       id="text3091"
       x="433.58502"
       y="715.12061"
       style="font-size:15px">
      <tspan
         style="font-size:10px;font-variant:normal;font-weight:normal;writing-mode:lr-tb;fill:#000000;fill-opacity:1;fill-rule:nonzero;stroke:none;font-family:Helvetica;-inkscape-font-specification:Helvetica"
         x="433.58502 440.25555 445.25604 450.81659 456.37714 459.7077 466.37823 474.15875 476.93927 483.60986 489.17035 494.7309 500.29144 505.85199 511.41254 516.97308 522.53363 528.09412 530.87469 536.43518 539.76575 542.54626 545.87683 551.43738 556.43787 559.76843 565.32898 568.1095 573.67004 579.23059 584.79114 587.57166 593.1322 595.91272 601.47327 607.03381 612.59436 615.92487 621.48541 624.26593 629.82648 635.38702 640.94757 644.27814 649.83862 652.6192 658.17975 663.74023 669.30078"
         y="715.12061"
         sodipodi:role="line"
         id="tspan3093">Vs39-AQIB01018220.1-trgv-1.193[0.553-0.423-0.387]</tspan>
    </text>
    <text
       id="text3095"
       x="461.31"
       y="772.43311"
       style="font-size:15px;fill:#ff0000">
      <tspan
         style="font-size:10px;font-variant:normal;font-weight:normal;writing-mode:lr-tb;fill:#ff0000;fill-opacity:1;fill-rule:nonzero;stroke:none;font-family:Helvetica;-inkscape-font-specification:Helvetica"
         x="461.31 467.98077 473.5415 479.10229 484.66302 491.88379 497.99457 501.32532 507.99609 515.77686 518.55762 525.22839 530.78912 536.34991 541.91064 547.47144 553.03223 558.59296 564.15375 569.71448 572.49524 578.05603 581.38678 584.16754 587.49829 593.05908 598.05981 601.39056 606.95135 609.73212 615.29285 620.85364 626.41443 629.74518 635.30591 638.08667 643.64746 649.20819 654.76898 660.32971 665.8905 671.45123 677.01202 682.57275 688.13354 693.69434"
         y="772.43311"
         sodipodi:role="line"
         id="tspan3097">V225RF-AQIB01128634.1-trdv-1.000-2.98788400513</tspan>
    </text>
    <text
       id="text3099"
       x="461.31"
       y="829.73309"
       style="font-size:15px">
      <tspan
         style="font-size:10px;font-variant:normal;font-weight:normal;writing-mode:lr-tb;fill:#000000;fill-opacity:1;fill-rule:nonzero;stroke:none;font-family:Helvetica;-inkscape-font-specification:Helvetica"
         x="461.31 467.98053 472.98114 478.54169 484.10223 489.66278 492.99335 499.66394 507.44452 510.22504 516.89563 522.45618 528.01672 533.57733 539.13788 544.69843 550.25897 555.81958 561.38013 564.16071 569.72125 573.05182 575.8324 579.1629 584.72351 589.72406 593.05463 598.61517 601.39575 606.9563 612.51685 618.07745 620.85797 626.41858 629.1991 634.7597 640.32025 645.8808 649.21136 654.77191 657.55249 663.11304 668.67365 674.23419 677.56476 683.12531 685.90588 691.46643 697.02698 702.58759"
         y="829.73309"
         sodipodi:role="line"
         id="tspan3101">Vs887-AQIB01128634.1-trdv-2.948[0.987-0.990-0.972]</tspan>
    </text>
    <text
       id="text3103"
       x="362.34747"
       y="887.04559"
       style="font-size:15px;fill:#800080">
      <tspan
         style="font-size:10px;font-variant:normal;font-weight:normal;writing-mode:lr-tb;fill:#800080;fill-opacity:1;fill-rule:nonzero;stroke:none;font-family:Helvetica;-inkscape-font-specification:Helvetica"
         x="362.34747 369.01807 374.01862 379.57916 385.13977 390.70032 394.03088 400.70142 408.48199 411.26257 417.93311 423.49371 429.05426 434.61481 440.17535 445.7359 451.29651 456.85706 462.4176 465.19818 470.75873 474.08929 476.86987 480.20044 485.76099 490.76154 494.0921 499.65271 502.43323 507.99384 513.55438 519.11493 521.89551 527.45605 530.23663 535.79718 541.35773 546.91833 550.2489 555.80945 558.59003 564.15057 569.71112 575.27167 578.60223 584.16284 586.94336 592.50397 598.06451 603.62506"
         y="887.04559"
         sodipodi:role="line"
         id="tspan3105">Vs886-AQIB01128634.1-trdv-0.948[0.419-0.289-0.334]</tspan>
    </text>
    <text
       id="text3107"
       x="451.53497"
       y="600.50812"
       style="font-size:15px">
      <tspan
         style="font-size:10px;font-variant:normal;font-weight:normal;writing-mode:lr-tb;fill:#000000;fill-opacity:1;fill-rule:nonzero;stroke:none;font-family:Helvetica;-inkscape-font-specification:Helvetica"
         x="451.53497 458.20551 463.20605 468.7666 474.32715 477.65771 484.32825 492.10876 494.88928 501.55981 507.12036 512.68091 518.24146 523.802 529.36255 534.92303 540.48358 546.04413 548.82465 554.38519 557.71576 560.49628 563.82684 569.38739 574.38788 577.71844 583.27899 586.05951 591.62006 597.1806 602.74109 605.52167 611.08221 613.86273 619.42328 624.98383 630.54431 633.87488 639.43542 642.21594 647.77649 653.33704 658.89758 662.22809 667.78864 670.56921 676.1297 681.69025 687.25079"
         y="600.50812"
         sodipodi:role="line"
         id="tspan3109">Vs37-AQIB01018219.1-trgv-2.918[0.969-0.965-0.985]</tspan>
    </text>
    <text
       id="text3111"
       x="353.27252"
       y="256.65808"
       style="font-size:15px;fill:#ff0000">
      <tspan
         style="font-size:10px;font-variant:normal;font-weight:normal;writing-mode:lr-tb;fill:#ff0000;fill-opacity:1;fill-rule:nonzero;stroke:none;font-family:Helvetica;-inkscape-font-specification:Helvetica"
         x="353.27252 359.94324 365.50397 372.72467 378.83539 382.16614 388.83685 396.61755 399.39832 406.06903 411.62976 417.19049 422.75122 428.31195 433.87262 439.43335 444.99408 450.55481 453.33557 458.8963 462.22699 465.00775 468.33844 473.89917 478.8999 482.23059 487.79132 490.57208 496.13281 501.69354 507.25427 510.58496 516.14569 518.92645 524.48718 530.04785 535.60858 541.16931 546.73004 552.29077 557.8515 563.41223 568.97296 574.53369"
         y="256.65808"
         sodipodi:role="line"
         id="tspan3113">V0RF-AQIB01018214.1-trgv-1.000-2.99899200002</tspan>
    </text>
    <text
       id="text3115"
       x="353.27252"
       y="313.97058"
       style="font-size:15px">
      <tspan
         style="font-size:10px;font-variant:normal;font-weight:normal;writing-mode:lr-tb;fill:#000000;fill-opacity:1;fill-rule:nonzero;stroke:none;font-family:Helvetica;-inkscape-font-specification:Helvetica"
         x="353.27252 359.94305 364.94354 370.50409 376.06464 379.3952 386.06573 393.84625 396.62677 403.29736 408.85785 414.4184 419.97894 425.53949 431.10004 436.66058 442.22113 447.78162 450.56219 456.12268 459.45325 462.23376 465.56433 471.12488 476.12537 479.45593 485.01648 487.797 493.35754 498.91809 504.47864 507.25916 512.8197 515.60022 521.16077 526.72131 532.28186 535.61237 541.17291 543.95343 549.51398 555.07452 560.63507 563.96564 569.52612 572.3067 577.86725 583.42773 588.98828"
         y="313.97058"
         sodipodi:role="line"
         id="tspan3117">Vs34-AQIB01018214.1-trgv-3.000[1.000-1.000-1.000]</tspan>
    </text>
    <text
       id="text3119"
       x="361.34747"
       y="199.35809"
       style="font-size:15px">
      <tspan
         style="font-size:10px;font-variant:normal;font-weight:normal;writing-mode:lr-tb;fill:#000000;fill-opacity:1;fill-rule:nonzero;stroke:none;font-family:Helvetica;-inkscape-font-specification:Helvetica"
         x="361.34747 368.01801 373.01855 378.5791 384.13965 387.47021 394.14075 401.92126 404.70178 411.37231 416.93286 422.49341 428.05396 433.6145 439.17505 444.73553 450.29608 455.85663 458.63715 464.19769 467.52826 470.30878 473.63934 479.19989 484.20038 487.53094 493.09149 495.87201 501.43256 506.9931 512.55359 515.33417 520.89471 523.67523 529.23578 534.79633 540.35681 543.68738 549.24792 552.02844 557.58899 563.14954 568.71008 572.04059 577.60114 580.38171 585.9422 591.50275 597.06329"
         y="199.35809"
         sodipodi:role="line"
         id="tspan3121">Vs35-AQIB01018215.1-trgv-2.998[0.999-1.000-0.999]</tspan>
    </text>
    <text
       id="text3123"
       x="451.53497"
       y="543.19562"
       style="font-size:15px;fill:#ff0000">
      <tspan
         style="font-size:10px;font-variant:normal;font-weight:normal;writing-mode:lr-tb;fill:#ff0000;fill-opacity:1;fill-rule:nonzero;stroke:none;font-family:Helvetica;-inkscape-font-specification:Helvetica"
         x="451.53497 458.20575 463.76642 470.98718 477.0979 480.42865 487.09937 494.88007 497.66077 504.33154 509.89227 515.453 521.01367 526.5744 532.13513 537.69586 543.25659 548.81732 551.59802 557.15875 560.4895 563.2702 566.60095 572.16168 577.16241 580.4931 586.05383 588.83459 594.39532 599.95599 605.51672 608.84747 614.4082 617.1889 622.74963 628.31036 633.87109 639.43182 644.99255 650.55328 656.11401 661.67474 667.23547 672.7962"
         y="543.19562"
         sodipodi:role="line"
         id="tspan3125">V3RF-AQIB01018219.1-trgv-0.991-2.98097252412</tspan>
    </text>
    <text
       id="text3127"
       x="394.39752"
       y="485.8956"
       style="font-size:15px;fill:#800080">
      <tspan
         style="font-size:10px;font-variant:normal;font-weight:normal;writing-mode:lr-tb;fill:#800080;fill-opacity:1;fill-rule:nonzero;stroke:none;font-family:Helvetica;-inkscape-font-specification:Helvetica"
         x="394.39752 401.06805 406.06854 411.62909 417.18964 420.5202 427.19073 434.97125 437.75177 444.42236 449.98285 455.5434 461.10394 466.66449 472.22504 477.78558 483.34613 488.90662 491.68719 497.24768 500.57825 503.35876 506.68933 512.24988 517.25037 520.58093 526.14148 528.922 534.48254 540.04309 545.60364 548.38416 553.9447 556.72522 562.28577 567.84631 573.40686 576.73737 582.29791 585.07843 590.63898 596.19952 601.76007 605.09064 610.65112 613.4317 618.99225 624.55273 630.11328"
         y="485.8956"
         sodipodi:role="line"
         id="tspan3129">Vs40-AQIB01018220.1-trgv-1.260[0.553-0.328-0.563]</tspan>
    </text>
    <text
       id="text3131"
       x="357.06"
       y="371.2706"
       style="font-size:15px;fill:#ff0000">
      <tspan
         style="font-size:10px;font-variant:normal;font-weight:normal;writing-mode:lr-tb;fill:#ff0000;fill-opacity:1;fill-rule:nonzero;stroke:none;font-family:Helvetica;-inkscape-font-specification:Helvetica"
         x="357.06 363.73071 369.29144 376.51215 382.62292 385.95361 392.62433 400.40509 403.18579 409.85651 415.41724 420.97797 426.5387 432.09943 437.66016 443.22089 448.78162 454.34235 457.12305 462.68378 466.01447 468.79523 472.12592 477.68671 482.68738 486.01813 491.57886 494.35956 499.92029 505.48102 511.04175 514.3725 519.93317 522.71393 528.27466 533.83539 539.39612 544.95685 550.51752 556.07825 561.63898 567.19971 572.76044 578.32117"
         y="371.2706"
         sodipodi:role="line"
         id="tspan3133">V2RF-AQIB01018217.1-trgv-1.000-2.99899200002</tspan>
    </text>
    <text
       xml:space="preserve"
       style="font-size:18px;font-style:normal;font-variant:normal;font-weight:normal;font-stretch:normal;line-height:125%;letter-spacing:0px;word-spacing:0px;fill:#000000;fill-opacity:1;stroke:none;font-family:Arial;-inkscape-font-specification:Sans"
       x="132.88214"
       y="894.72754"
       id="text3641"
       sodipodi:linespacing="125%"><tspan
         sodipodi:role="line"
         id="tspan3643"
         x="132.88214"
         y="894.72754">0.3</tspan></text>
  </g>
</svg>
